<svg width="32" height="32" fill="none" xmlns="http://www.w3.org/2000/svg"><path fill-rule="evenodd" clip-rule="evenodd" d="M16 0C7.163 0 0 7.163 0 16s7.163 16 16 16 16-7.163 16-16S24.837 0 16 0Zm1.303 21.05c-.158.167-.466.2-.466.2h-1.02s-2.25.134-4.233-1.892c-2.162-2.21-4.07-6.594-4.07-6.594s-.111-.288.008-.426c.135-.157.501-.167.501-.167l2.438-.015s.23.037.394.155c.136.099.212.281.212.281s.394.979.916 1.864c1.02 1.728 1.493 2.105 1.84 1.92.503-.27.352-2.442.352-2.442s.01-.788-.254-1.14c-.203-.272-.587-.351-.757-.374-.137-.018.088-.33.38-.47.44-.211 1.214-.224 2.13-.215.713.008.919.051 1.197.118.647.153.627.644.584 1.704-.013.317-.029.685-.029 1.11 0 .096-.002.197-.005.302-.015.543-.033 1.165.332 1.397.187.118.643.017 1.786-1.887.542-.903.948-1.964.948-1.964s.089-.19.227-.27c.14-.083.331-.058.331-.058l2.566-.016s.771-.09.896.252c.13.358-.288 1.195-1.337 2.567-.994 1.301-1.478 1.78-1.434 2.204.033.31.347.59.95 1.14 1.261 1.148 1.599 1.753 1.68 1.898l.015.027c.566.92-.627.992-.627.992l-2.28.03s-.488.096-1.133-.338c-.337-.228-.667-.599-.981-.952-.48-.54-.923-1.04-1.302-.921-.635.198-.616 1.54-.616 1.54s.005.288-.14.44Z" fill="#fff"/></svg>