<svg xmlns="http://www.w3.org/2000/svg" viewBox="0 0 583 276" style="enable-background:new 0 0 583 276" xml:space="preserve"><path style="fill-rule:evenodd;clip-rule:evenodd;fill:#e31e24" d="M66 236.1 89.6 206l23.6 30.1z"/><path d="M249.4 117.6v13.2c-5.6-8.8-14.9-14.9-27-14.9-20.2 0-35.5 16.7-35.5 40.2 0 23.5 15 40.2 35.6 40.2 12.1 0 21.3-5.7 26.9-14.6v12.9h15.8v-77.1l-15.8.1zm-23.5 63.6c-13.3 0-23-10.2-23-25.1 0-14.7 9.5-25.1 23-25.1s23.7 10.4 23.7 25.1c0 14.8-10.2 25.1-23.7 25.1zm58 13.4h16V86.7h-16v107.9zm94-77v13.2c-5.6-8.8-14.9-14.9-27-14.9-20.2 0-35.5 16.7-35.5 40.2 0 23.5 15 40.2 35.6 40.2 12 0 21.3-5.7 26.9-14.6v12.9h15.8v-77.1l-15.8.1zm-23.5 63.6c-13.3 0-23-10.2-23-25.1 0-14.7 9.5-25.1 23-25.1s23.7 10.4 23.7 25.1c0 14.8-10.3 25.1-23.7 25.1zm99.5-65.3c-12 0-20.3 5.5-25.8 14.4v-12.8h-15.8v77.1h15.8v-39.9c0-14.9 7.3-23.7 20.9-23.7 11.6 0 16.8 6.3 16.8 18.2v45.4h15.8V146c0-18.8-10.3-30.1-27.7-30.1zm79.6 80.4c18.2 0 33.1-8.1 33.1-24.7 0-15-12.1-18.6-32.9-23.5-13.5-3.2-18.2-4.5-18.2-9.4 0-5.3 6-8.8 16.3-8.8 9.8 0 15.7 3.1 17.9 9.4h16c-2.8-14-13.9-23.4-33.6-23.4-19.3 0-32.5 9-32.5 24.5 0 12.9 9.1 17.2 30.7 22.6 12.9 3.1 20.2 4.1 20.2 10.5 0 5.7-6.3 8.8-16.5 8.8-13.3 0-19.6-3.9-22-12.5h-16.1c2.7 16.7 17.3 26.5 37.6 26.5zM121.1 88c7.7-11.7 7.9-22.7.3-34.8-12.2-19.6-32.3-22.5-55.5-8L15.1 77l74.6 119.3 51.5-32.2c25.1-15.7 31.6-37.5 18.5-58.5-9.1-14.4-22.6-21.9-38.6-17.6zm-17.2-19.6c6.1 9.7 4.5 18.5-9.5 27.3L65.1 114 45.9 83.3l29.2-18.2c13.8-8.6 22.3-7.1 28.8 3.3zm25.3 77.6-31.7 19.8-21.3-34.1 31.5-19.7c15.7-9.8 24.7-6.7 31.6 4.2 6.3 10.3 5.5 20-10.1 29.8zm57 70.9h380.1v19.6H186.2z" style="fill:#2b2a29"/></svg>