<svg xmlns="http://www.w3.org/2000/svg" viewBox="0 0 669 218.5" style="enable-background:new 0 0 669 218.5" xml:space="preserve"><path style="fill-rule:evenodd;clip-rule:evenodd;fill:#e31e24" d="m54.9 199.8 23.6-30.1 23.6 30.1z"/><path d="M238.2 81.4v13.2c-5.6-8.8-14.8-14.8-27-14.8-20.2 0-35.4 16.7-35.4 40.2s15 40.2 35.6 40.2c12 0 21.3-5.7 26.9-14.6v12.9H254v-77l-15.8-.1zm-23.6 63.5c-13.3 0-23-10.2-23-25.1 0-14.7 9.5-25.1 23-25.1 13.4 0 23.7 10.4 23.7 25.1 0 14.9-10.2 25.1-23.7 25.1zm58 13.4h16V50.6h-16v107.7zm93.9-76.9v13.2c-5.6-8.8-14.8-14.8-27-14.8-20.2 0-35.4 16.7-35.4 40.2s15 40.2 35.6 40.2c12 0 21.3-5.7 26.9-14.6v12.9h15.8v-77l-15.9-.1zM343 144.9c-13.3 0-23-10.2-23-25.1 0-14.7 9.5-25.1 23-25.1 13.4 0 23.7 10.4 23.7 25.1 0 14.9-10.3 25.1-23.7 25.1zm99.4-65.2c-12 0-20.3 5.5-25.8 14.4V81.4h-15.8v77h15.8v-39.9c0-14.8 7.3-23.7 20.9-23.7 11.6 0 16.8 6.3 16.8 18.2v45.4h15.8v-48.6c0-18.8-10.3-30.1-27.7-30.1zm82.9 80.3c18.1 0 34.3-10.8 37.9-29.8h-16.4c-2.9 9.5-11.5 15.1-21.6 15.1-13.9 0-23.9-10.5-23.9-25.5 0-14.8 9.8-25.5 24.1-25.5 9.9 0 18.5 5.3 21.4 15h16.4c-3.5-18.6-19.6-29.7-37.8-29.7-23 0-40 17.2-40 40.2s17 40.2 39.9 40.2zM615 79.7c-23.2 0-39.8 17.1-39.8 40.3s16.7 40 40 40c16.4 0 31.1-8.1 37.1-25.3H636c-3.6 7.6-11.3 11.5-20.6 11.5-12.9 0-22.8-7.8-24.1-22h62.6c1.6-25.3-14.1-44.5-38.9-44.5zm0 13.7c11.6 0 19.6 7.4 22 17.9h-44.8C594.8 101 603 93.4 615 93.4zm-420.4 89.3v4.1c-1.8-2.8-4.7-4.7-8.5-4.7-6.3 0-11.1 5.2-11.1 12.6 0 7.4 4.7 12.6 11.2 12.6 3.8 0 6.7-1.8 8.5-4.6v4h5v-24.2h-5.1zm-7.4 20c-4.2 0-7.2-3.2-7.2-7.9 0-4.6 3-7.9 7.2-7.9s7.4 3.3 7.4 7.9c0 4.7-3.2 7.9-7.4 7.9zm31.2-20.5c-3.8 0-6.6 1.9-8.1 5.3v-4.8h-5v24.2h5v-11.1c0-6 3.5-8.5 8-8.5.7 0 1.1 0 1.5.1v-5.1c-.3-.1-.8-.1-1.4-.1zm17 25.3c5.7 0 10.8-3.4 11.9-9.4h-5.1c-.9 3-3.6 4.8-6.8 4.8-4.4 0-7.5-3.3-7.5-8s3.1-8 7.6-8c3.1 0 5.8 1.7 6.7 4.7h5.1c-1.1-5.9-6.2-9.3-11.9-9.3-7.2 0-12.6 5.4-12.6 12.6 0 7.1 5.4 12.6 12.6 12.6zm29.8-25.3c-3.7 0-6.4 1.7-8.1 4.5V173h-5v33.9h5v-12.5c0-4.7 2.3-7.4 6.5-7.4 3.7 0 5.3 2 5.3 5.7V207h5v-15.3c0-6-3.3-9.5-8.7-9.5zm16.7-10.4c-1.8 0-3.2 1.3-3.2 3 0 1.8 1.4 3.1 3.2 3.1 1.9 0 3.3-1.3 3.3-3.1 0-1.7-1.4-3-3.3-3zm-2.5 35.1h5v-24.2h-5v24.2zm28.3-5.3c-1.9.7-3.6 1.2-5.2 1.2-3.1 0-4.8-1.9-4.8-5.5v-10h9.9v-4.7h-9.9V176l-5 1.1v5.5h-4.5v4.7h4.5v10.3c0 6.7 3.9 9.8 8.8 9.8 2.8 0 5.6-1 6.9-1.8l-.7-4zm16-19.4c-7.3 0-12.5 5.4-12.5 12.7s5.2 12.6 12.6 12.6c5.2 0 9.8-2.6 11.7-8h-5.1c-1.1 2.4-3.6 3.6-6.5 3.6-4 0-7.2-2.5-7.6-6.9H336c.4-8-4.5-14-12.3-14zm0 4.3c3.7 0 6.2 2.3 6.9 5.6h-14.1c.8-3.2 3.4-5.6 7.2-5.6zm28.8 21c5.7 0 10.8-3.4 11.9-9.4h-5.1c-.9 3-3.6 4.8-6.8 4.8-4.4 0-7.5-3.3-7.5-8s3.1-8 7.6-8c3.1 0 5.8 1.7 6.7 4.7h5.1c-1.1-5.9-6.2-9.3-11.9-9.3-7.2 0-12.6 5.4-12.6 12.6.1 7.1 5.4 12.6 12.6 12.6zm34-5.9c-1.9.7-3.6 1.2-5.2 1.2-3.1 0-4.8-1.9-4.8-5.5v-10h9.9v-4.7h-9.9V176l-5 1.1v5.5H367v4.7h4.5v10.3c0 6.7 3.9 9.8 8.8 9.8 2.8 0 5.6-1 6.9-1.8l-.7-4zm21.9-18.9v12.5c0 4.7-2.3 7.4-6.5 7.4-3.6 0-5.2-2-5.2-5.7v-14.3h-5V198c0 5.9 3.2 9.5 8.6 9.5 3.7 0 6.3-1.8 8.1-4.5v4h5v-24.2l-5-.1zm23.7-.5c-3.8 0-6.6 1.9-8.1 5.3v-4.8h-5v24.2h5v-11.1c0-6 3.5-8.5 8-8.5.7 0 1.1 0 1.5.1v-5.1c-.3-.1-.8-.1-1.4-.1zm16.7 0c-7.3 0-12.5 5.4-12.5 12.7s5.2 12.6 12.6 12.6c5.2 0 9.8-2.6 11.7-8h-5.1c-1.1 2.4-3.6 3.6-6.5 3.6-4 0-7.2-2.5-7.6-6.9H461c.5-8-4.4-14-12.2-14zm0 4.3c3.7 0 6.2 2.3 6.9 5.6h-14.1c.8-3.2 3.4-5.6 7.2-5.6zm67.9-13.5v13.8c-1.8-2.8-4.7-4.7-8.5-4.7-6.3 0-11.1 5.2-11.1 12.6 0 7.4 4.7 12.6 11.2 12.6 3.8 0 6.7-1.8 8.5-4.6v4h5V173h-5.1zm-7.4 29.7c-4.2 0-7.2-3.2-7.2-7.9 0-4.6 3-7.9 7.2-7.9s7.4 3.3 7.4 7.9c0 4.7-3.2 7.9-7.4 7.9zm29.9-20.5c-7.3 0-12.5 5.4-12.5 12.7s5.2 12.6 12.6 12.6c5.2 0 9.8-2.6 11.7-8h-5.2c-1.1 2.4-3.6 3.6-6.5 3.6-4 0-7.2-2.5-7.6-6.9h19.7c.5-8-4.4-14-12.2-14zm0 4.3c3.7 0 6.2 2.3 6.9 5.6H532c.9-3.2 3.4-5.6 7.2-5.6zm27.8 21c5.7 0 10.4-2.6 10.4-7.7 0-4.7-3.8-5.9-10.3-7.4-4.2-1-5.7-1.4-5.7-2.9 0-1.7 1.9-2.8 5.1-2.8 3.1 0 4.9 1 5.6 2.9h5c-.9-4.4-4.4-7.4-10.6-7.4-6.1 0-10.2 2.8-10.2 7.7 0 4 2.9 5.4 9.6 7.1 4 1 6.3 1.3 6.3 3.3 0 1.8-2 2.8-5.2 2.8-4.2 0-6.2-1.2-6.9-3.9H555c1 5.2 5.6 8.3 12 8.3zm17.4-35.7c-1.8 0-3.2 1.3-3.2 3 0 1.8 1.4 3.1 3.2 3.1 1.9 0 3.3-1.3 3.3-3.1 0-1.7-1.4-3-3.3-3zm-2.4 35.1h5v-24.2h-5v24.2zm29.6-24.2v4.1c-1.8-2.8-4.7-4.7-8.5-4.7-6.4 0-11.2 5.2-11.2 12.5s4.7 12.5 11.2 12.5c3.7 0 6.6-1.8 8.5-4.5v4.1c0 4.7-2.4 7.2-6.9 7.2-3.3 0-5.9-1.5-6.8-4.6h-5.2c1.1 6 6.3 9 12.1 9 7.2 0 11.7-4.6 11.7-11.8v-23.9h-4.9v.1zm-7.4 19.7c-4.2 0-7.2-3.2-7.2-7.7s3-7.7 7.2-7.7 7.4 3.3 7.4 7.7c0 4.5-3.2 7.7-7.4 7.7zm31.2-20.2c-3.8 0-6.4 1.7-8.1 4.5v-4h-5v24.2h5v-12.5c0-4.7 2.3-7.4 6.6-7.4 3.7 0 5.3 2 5.3 5.7V207h5v-15.3c-.1-6-3.3-9.5-8.8-9.5zm-142.5 24.7c-2-2.1-3.8-3.9-5.4-5.6 1.7-2.4 2.8-5.3 3.1-8.5h-5.1c-.3 1.9-.8 3.5-1.5 4.9-2.4-2.5-4.3-4.4-5.8-6.1 3.8-2.3 6.7-4.6 6.7-8.6 0-4.7-3.7-7.5-8.3-7.5-4.5 0-8.7 2.6-8.7 7.7 0 2.1.8 4 3.3 7.1-4 2.4-6.4 4.5-6.4 8.5 0 5.8 4.7 8.5 10.6 8.5 3.5 0 6.6-1.1 9-2.9.7.8 1.5 1.5 2.3 2.4l6.2.1zm-16.3-26.7c2.2 0 3.3 1.2 3.3 3s-1.2 2.9-4.8 5.1c-1.7-2.1-2.2-3.3-2.2-4.6 0-2.4 1.5-3.5 3.7-3.5zm-1 22.7c-3.8 0-5.9-1.7-5.9-4.1 0-1.9 1.4-3 4.4-4.8 1.8 2 4 4.3 6.8 7.2-1.4 1.1-3.3 1.7-5.3 1.7zM110 51.9c7.6-11.6 7.9-22.7.3-34.8C98-2.5 78-5.4 54.8 9.1L4.1 40.8 78.6 160l51.4-32.1c25-15.6 31.5-37.5 18.4-58.4-9-14.5-22.4-22-38.4-17.6zM92.8 32.3c6.1 9.7 4.5 18.5-9.5 27.2L54 77.8 34.8 47.2 63.9 29c13.8-8.6 22.4-7.1 28.9 3.3zm25.2 77.5-31.7 19.8-21.3-34 31.5-19.7c15.7-9.8 24.7-6.7 31.5 4.2 6.5 10.2 5.7 19.9-10 29.7z" style="fill:#2b2a29"/></svg>