<svg xmlns="http://www.w3.org/2000/svg" xml:space="preserve" width="583" height="276" style="shape-rendering:geometricPrecision;text-rendering:geometricPrecision;image-rendering:optimizeQuality;fill-rule:evenodd;clip-rule:evenodd" viewBox="0 0 583 275.743"><defs><style>.fil1{fill:#2b2a29;fill-rule:nonzero}</style></defs><g id="Слой_x0020_1"><path style="fill:tomato" d="m66.028 235.937 23.597-30.108 23.595 30.108z"/><path class="fil1" d="M249.448 117.424v13.172c-5.605-8.828-14.853-14.854-27.043-14.854-20.178 0-35.451 16.675-35.451 40.215 0 23.541 14.993 40.215 35.591 40.215 12.05 0 21.298-5.745 26.903-14.572v12.891h15.834v-77.067h-15.834zm-23.54 63.615c-13.312 0-22.98-10.229-22.98-25.082 0-14.712 9.528-25.081 22.98-25.081 13.451 0 23.68 10.369 23.68 25.081 0 14.853-10.229 25.082-23.68 25.082zm58.01 13.452h15.974V86.598h-15.974v107.893zm94.021-77.067v13.172c-5.605-8.828-14.853-14.854-27.044-14.854-20.177 0-35.45 16.675-35.45 40.215 0 23.541 14.993 40.215 35.591 40.215 12.05 0 21.298-5.745 26.903-14.572v12.891h15.834v-77.067h-15.834zm-23.54 63.615c-13.312 0-22.98-10.229-22.98-25.082 0-14.712 9.528-25.081 22.98-25.081 13.451 0 23.68 10.369 23.68 25.081 0 14.853-10.229 25.082-23.68 25.082zm99.485-65.297c-12.05 0-20.317 5.465-25.782 14.433v-12.751h-15.834v77.067h15.834v-39.935c0-14.853 7.286-23.68 20.878-23.68 11.63 0 16.815 6.305 16.815 18.216v45.399h15.834v-48.622c0-18.777-10.37-30.127-27.745-30.127zm79.589 80.43c18.216 0 33.069-8.127 33.069-24.661 0-14.993-12.051-18.636-32.929-23.54-13.451-3.223-18.215-4.484-18.215-9.389 0-5.324 6.025-8.827 16.253-8.827 9.809 0 15.694 3.082 17.936 9.388h15.974c-2.803-14.012-13.872-23.401-33.629-23.401-19.337 0-32.508 8.968-32.508 24.522 0 12.891 9.108 17.235 30.686 22.559 12.891 3.083 20.178 4.064 20.178 10.51 0 5.745-6.306 8.827-16.535 8.827-13.311 0-19.616-3.923-21.999-12.471h-16.113c2.942 16.675 17.515 26.483 37.832 26.483z"/><path d="M202.056 216.793v3.352c-1.426-2.247-3.78-3.78-6.882-3.78-5.135 0-9.022 4.244-9.022 10.234 0 5.992 3.815 10.235 9.057 10.235 3.067 0 5.421-1.462 6.847-3.708v3.28h4.03v-19.613h-4.03zm-5.991 16.19c-3.387 0-5.848-2.603-5.848-6.384 0-3.744 2.425-6.383 5.848-6.383s6.027 2.639 6.027 6.383c0 3.781-2.604 6.384-6.027 6.384zm25.284-16.618c-3.103 0-5.349 1.569-6.526 4.315v-3.887h-4.03v19.613h4.03v-8.986c0-4.85 2.817-6.918 6.49-6.918.535 0 .856.035 1.212.071v-4.101c-.285-.071-.677-.107-1.176-.107zm13.764 20.469c4.6 0 8.737-2.746 9.664-7.596h-4.172c-.749 2.425-2.924 3.852-5.492 3.852-3.53 0-6.098-2.675-6.098-6.491 0-3.78 2.497-6.49 6.134-6.49 2.532 0 4.707 1.355 5.456 3.816h4.172c-.891-4.743-4.992-7.56-9.628-7.56-5.848 0-10.199 4.386-10.199 10.234 0 5.849 4.351 10.235 10.163 10.235zm24.142-20.469c-3.031 0-5.17 1.355-6.561 3.638v-11.055h-4.03v27.458h4.03v-10.163c0-3.78 1.854-6.027 5.278-6.027 2.959 0 4.315 1.605 4.315 4.636v11.554h4.029v-12.374c0-4.778-2.674-7.667-7.061-7.667zm13.551-8.416c-1.462 0-2.603 1.034-2.603 2.461 0 1.462 1.141 2.532 2.603 2.532 1.534 0 2.639-1.07 2.639-2.532 0-1.427-1.105-2.461-2.639-2.461zm-1.997 28.457h4.03v-19.613h-4.03v19.613zm22.895-4.279c-1.534.535-2.925.963-4.173.963-2.532 0-3.851-1.569-3.851-4.422v-8.095h8.059v-3.78h-8.059v-5.349l-4.03.891v4.458h-3.637v3.78h3.637v8.309c0 5.42 3.138 7.952 7.168 7.952 2.247 0 4.529-.784 5.599-1.426l-.713-3.281zm12.944-15.762c-5.92 0-10.128 4.351-10.128 10.27 0 5.92 4.244 10.199 10.199 10.199 4.173 0 7.917-2.068 9.451-6.454h-4.173c-.927 1.925-2.888 2.924-5.242 2.924-3.281 0-5.812-1.997-6.133-5.599h15.94c.392-6.455-3.602-11.34-9.914-11.34zm0 3.495c2.96 0 4.993 1.89 5.599 4.564h-11.412c.678-2.639 2.746-4.564 5.813-4.564zm23.358 16.974c4.6 0 8.737-2.746 9.664-7.596h-4.172c-.749 2.425-2.925 3.852-5.492 3.852-3.531 0-6.098-2.675-6.098-6.491 0-3.78 2.496-6.49 6.133-6.49 2.532 0 4.708 1.355 5.457 3.816h4.172c-.892-4.743-4.993-7.56-9.629-7.56-5.848 0-10.199 4.386-10.199 10.234 0 5.849 4.351 10.235 10.164 10.235zm27.565-4.707c-1.533.535-2.924.963-4.172.963-2.532 0-3.852-1.569-3.852-4.422v-8.095h8.06v-3.78h-8.06v-5.349l-4.029.891v4.458h-3.637v3.78h3.637v8.309c0 5.42 3.138 7.952 7.167 7.952 2.247 0 4.529-.784 5.599-1.426l-.713-3.281zm17.688-15.334v10.163c0 3.78-1.89 6.027-5.242 6.027-2.924 0-4.208-1.605-4.208-4.636v-11.554h-4.03v12.374c0 4.779 2.603 7.667 6.954 7.667 3.031 0 5.135-1.426 6.526-3.673v3.245h4.029v-19.613h-4.029zm19.221-.428c-3.103 0-5.349 1.569-6.526 4.315v-3.887h-4.03v19.613h4.03v-8.986c0-4.85 2.817-6.918 6.49-6.918.535 0 .856.035 1.212.071v-4.101c-.285-.071-.677-.107-1.176-.107zm13.515 0c-5.92 0-10.127 4.351-10.127 10.27 0 5.92 4.243 10.199 10.199 10.199 4.172 0 7.916-2.068 9.45-6.454h-4.173c-.927 1.925-2.888 2.924-5.242 2.924-3.281 0-5.812-1.997-6.133-5.599h15.94c.392-6.455-3.602-11.34-9.914-11.34zm0 3.495c2.96 0 4.993 1.89 5.599 4.564h-11.411c.677-2.639 2.746-4.564 5.812-4.564zm35.732 16.546c-1.605-1.676-3.067-3.174-4.386-4.564 1.39-1.926 2.246-4.315 2.532-6.847h-4.101c-.25 1.569-.678 2.853-1.248 3.958-1.926-1.997-3.459-3.601-4.672-4.921 3.067-1.854 5.42-3.709 5.42-6.954 0-3.815-3.031-6.062-6.739-6.062-3.638 0-7.025 2.139-7.025 6.276 0 1.712.641 3.281 2.639 5.777-3.245 1.962-5.207 3.638-5.207 6.847 0 4.671 3.816 6.918 8.558 6.918 2.853 0 5.314-.892 7.275-2.353.571.641 1.213 1.248 1.855 1.925h5.099zm-13.23-21.681c1.747 0 2.71.998 2.71 2.389 0 1.462-.963 2.354-3.851 4.136-1.355-1.711-1.783-2.674-1.783-3.708 0-1.854 1.212-2.817 2.924-2.817zm-.749 18.401c-3.102 0-4.743-1.356-4.743-3.317 0-1.569 1.142-2.425 3.602-3.887 1.462 1.605 3.281 3.495 5.527 5.848-1.283.927-2.781 1.356-4.386 1.356zm33.307-24.178v11.197c-1.462-2.247-3.816-3.78-6.918-3.78-5.135 0-9.022 4.244-9.022 10.234 0 5.992 3.815 10.235 9.057 10.235 3.067 0 5.421-1.498 6.883-3.708v3.28h4.03v-27.458h-4.03zm-6.027 24.035c-3.387 0-5.848-2.603-5.848-6.384 0-3.744 2.425-6.383 5.848-6.383 3.424 0 6.027 2.639 6.027 6.383 0 3.781-2.603 6.384-6.027 6.384zm24.214-16.618c-5.92 0-10.128 4.351-10.128 10.27 0 5.92 4.244 10.199 10.199 10.199 4.172 0 7.917-2.068 9.45-6.454h-4.172c-.928 1.925-2.889 2.924-5.242 2.924-3.281 0-5.813-1.997-6.134-5.599h15.94c.392-6.455-3.602-11.34-9.913-11.34zm0 3.495c2.96 0 4.992 1.89 5.598 4.564h-11.411c.678-2.639 2.746-4.564 5.813-4.564zm22.502 16.974c4.635 0 8.415-2.068 8.415-6.276 0-3.816-3.066-4.743-8.38-5.991-3.423-.82-4.636-1.141-4.636-2.389 0-1.355 1.534-2.247 4.137-2.247 2.496 0 3.994.785 4.564 2.389h4.066c-.714-3.566-3.531-5.955-8.559-5.955-4.921 0-8.273 2.282-8.273 6.241 0 3.281 2.318 4.386 7.81 5.741 3.28.784 5.135 1.034 5.135 2.674 0 1.462-1.605 2.247-4.208 2.247-3.388 0-4.993-.998-5.599-3.174h-4.101c.749 4.244 4.458 6.74 9.629 6.74zm14.157-28.885c-1.462 0-2.603 1.034-2.603 2.461 0 1.462 1.141 2.532 2.603 2.532 1.533 0 2.638-1.07 2.638-2.532 0-1.427-1.105-2.461-2.638-2.461zm-1.997 28.457h4.029v-19.613h-4.029v19.613zm23.963-19.613v3.352c-1.426-2.247-3.815-3.78-6.846-3.78-5.171 0-9.058 4.244-9.058 10.127 0 5.884 3.816 10.128 9.058 10.128 3.031 0 5.385-1.498 6.846-3.673v3.352c0 3.816-1.961 5.848-5.562 5.848-2.639 0-4.815-1.177-5.492-3.708h-4.172c.856 4.885 5.099 7.31 9.771 7.31 5.812 0 9.485-3.744 9.485-9.593v-19.363h-4.03zm-5.99 15.976c-3.388 0-5.849-2.603-5.849-6.277 0-3.637 2.425-6.276 5.849-6.276 3.423 0 6.026 2.639 6.026 6.276 0 3.674-2.603 6.277-6.026 6.277zm25.318-16.404c-3.066 0-5.17 1.391-6.561 3.673v-3.245h-4.029v19.613h4.029v-10.163c0-3.78 1.855-6.027 5.314-6.027 2.959 0 4.279 1.605 4.279 4.636v11.554h4.029v-12.374c0-4.778-2.638-7.667-7.061-7.667z" style="fill:#2b2a29;fill-rule:nonzero"/><path class="fil1" d="M121.117 87.888c7.651-11.655 7.865-22.692.302-34.796-12.25-19.605-32.301-22.483-55.486-7.996L15.132 76.84l74.567 119.332 51.484-32.17c25.059-15.659 31.56-37.499 18.458-58.468-9.055-14.49-22.5-21.97-38.524-17.646zm-17.215-19.584c6.072 9.717 4.473 18.539-9.506 27.273L65.075 113.9 45.9 83.214l29.152-18.215c13.808-8.629 22.353-7.094 28.85 3.305zm25.264 77.607-31.708 19.813-21.305-34.095 31.538-19.707c15.684-9.8 24.739-6.689 31.557 4.222 6.392 10.228 5.602 19.966-10.082 29.767z"/></g></svg>