<?xml version="1.0" encoding="UTF-8"?>
<!DOCTYPE svg PUBLIC "-//W3C//DTD SVG 1.1//EN" "http://www.w3.org/Graphics/SVG/1.1/DTD/svg11.dtd">
<!-- Creator: CorelDRAW 2021 (64-Bit) -->
<svg xmlns="http://www.w3.org/2000/svg" xml:space="preserve" width="583px" height="276px" version="1.1" style="shape-rendering:geometricPrecision; text-rendering:geometricPrecision; image-rendering:optimizeQuality; fill-rule:evenodd; clip-rule:evenodd"
viewBox="0 0 583 275.743"
 xmlns:xlink="http://www.w3.org/1999/xlink"
 xmlns:xodm="http://www.corel.com/coreldraw/odm/2003">
 <defs>
  <style type="text/css">
   <![CDATA[
    .fil0 {fill:#E31E24}
    .fil1 {fill:#2B2A29;fill-rule:nonzero}
   ]]>
  </style>
 </defs>
 <g id="Слой_x0020_1">
  <metadata id="CorelCorpID_0Corel-Layer"/>
  <polygon class="fil0" points="66.028,235.937 89.625,205.829 113.22,235.937 "/>
  <path class="fil1" d="M249.448 117.424l0 13.172c-5.605,-8.828 -14.853,-14.854 -27.043,-14.854 -20.178,0 -35.451,16.675 -35.451,40.215 0,23.541 14.993,40.215 35.591,40.215 12.05,0 21.298,-5.745 26.903,-14.572l0 12.891 15.834 0 0 -77.067 -15.834 0zm-23.54 63.615c-13.312,0 -22.98,-10.229 -22.98,-25.082 0,-14.712 9.528,-25.081 22.98,-25.081 13.451,0 23.68,10.369 23.68,25.081 0,14.853 -10.229,25.082 -23.68,25.082zm58.01 13.452l15.974 0 0 -107.893 -15.974 0 0 107.893zm94.021 -77.067l0 13.172c-5.605,-8.828 -14.853,-14.854 -27.044,-14.854 -20.177,0 -35.45,16.675 -35.45,40.215 0,23.541 14.993,40.215 35.591,40.215 12.05,0 21.298,-5.745 26.903,-14.572l0 12.891 15.834 0 0 -77.067 -15.834 0zm-23.54 63.615c-13.312,0 -22.98,-10.229 -22.98,-25.082 0,-14.712 9.528,-25.081 22.98,-25.081 13.451,0 23.68,10.369 23.68,25.081 0,14.853 -10.229,25.082 -23.68,25.082zm99.485 -65.297c-12.05,0 -20.317,5.465 -25.782,14.433l0 -12.751 -15.834 0 0 77.067 15.834 0 0 -39.935c0,-14.853 7.286,-23.68 20.878,-23.68 11.63,0 16.815,6.305 16.815,18.216l0 45.399 15.834 0 0 -48.622c0,-18.777 -10.37,-30.127 -27.745,-30.127zm79.589 80.43c18.216,0 33.069,-8.127 33.069,-24.661 0,-14.993 -12.051,-18.636 -32.929,-23.54 -13.451,-3.223 -18.215,-4.484 -18.215,-9.389 0,-5.324 6.025,-8.827 16.253,-8.827 9.809,0 15.694,3.082 17.936,9.388l15.974 0c-2.803,-14.012 -13.872,-23.401 -33.629,-23.401 -19.337,0 -32.508,8.968 -32.508,24.522 0,12.891 9.108,17.235 30.686,22.559 12.891,3.083 20.178,4.064 20.178,10.51 0,5.745 -6.306,8.827 -16.535,8.827 -13.311,0 -19.616,-3.923 -21.999,-12.471l-16.113 0c2.942,16.675 17.515,26.483 37.832,26.483z"/>
  <path class="fil1" d="M121.117 87.888c7.651,-11.655 7.865,-22.692 0.302,-34.796 -12.25,-19.605 -32.301,-22.483 -55.486,-7.996l-50.801 31.744 74.567 119.332 51.484 -32.17c25.059,-15.659 31.56,-37.499 18.458,-58.468 -9.055,-14.49 -22.5,-21.97 -38.524,-17.646zm-17.215 -19.584c6.072,9.717 4.473,18.539 -9.506,27.273l-29.321 18.323 -19.175 -30.686 29.152 -18.215c13.808,-8.629 22.353,-7.094 28.85,3.305zm25.264 77.607l-31.708 19.813 -21.305 -34.095 31.538 -19.707c15.684,-9.8 24.739,-6.689 31.557,4.222 6.392,10.228 5.602,19.966 -10.082,29.767z"/>
 </g>
</svg>
