<?xml version="1.0" encoding="UTF-8"?>
<!DOCTYPE svg PUBLIC "-//W3C//DTD SVG 1.1//EN" "http://www.w3.org/Graphics/SVG/1.1/DTD/svg11.dtd">
<!-- Creator: CorelDRAW 2021 (64-Bit) -->
<svg xmlns="http://www.w3.org/2000/svg" xml:space="preserve" width="433px" height="433px" version="1.1" style="shape-rendering:geometricPrecision; text-rendering:geometricPrecision; image-rendering:optimizeQuality; fill-rule:evenodd; clip-rule:evenodd"
viewBox="0 0 433 433"
 xmlns:xlink="http://www.w3.org/1999/xlink"
 xmlns:xodm="http://www.corel.com/coreldraw/odm/2003">
 <defs>
  <style type="text/css">
   <![CDATA[
    .fil0 {fill:#E31E24}
    .fil1 {fill:#2B2A29;fill-rule:nonzero}
   ]]>
  </style>
 </defs>
 <g id="Слой_x0020_1">
  <metadata id="CorelCorpID_0Corel-Layer"/>
  <g id="_2259732603776">
   <polygon class="fil0" points="178.065,419.596 225.039,359.658 272.01,419.596 "/>
   <path class="fil1" d="M287.732 124.87c15.231,-23.201 15.657,-45.174 0.601,-69.269 -24.387,-39.028 -64.303,-44.757 -110.457,-15.918l-101.131 63.195 148.442 237.557 102.489 -64.042c49.888,-31.174 62.829,-74.651 36.746,-116.393 -18.026,-28.846 -44.79,-43.738 -76.69,-35.13zm-34.27 -38.986c12.087,19.344 8.904,36.905 -18.924,54.294l-58.371 36.475 -38.171 -61.086 58.033 -36.263c27.488,-17.176 44.498,-14.121 57.433,6.58zm50.294 154.494l-63.123 39.443 -42.412 -67.875 62.784 -39.231c31.221,-19.509 49.249,-13.314 62.82,8.405 12.725,20.362 11.153,39.747 -20.069,59.258z"/>
  </g>
 </g>
</svg>
