<?xml version="1.0" encoding="UTF-8"?>
<!DOCTYPE svg PUBLIC "-//W3C//DTD SVG 1.1//EN" "http://www.w3.org/Graphics/SVG/1.1/DTD/svg11.dtd">
<!-- Creator: CorelDRAW 2021 (64-Bit) -->
<svg xmlns="http://www.w3.org/2000/svg" xml:space="preserve" width="669px" height="669px" version="1.1" style="shape-rendering:geometricPrecision; text-rendering:geometricPrecision; image-rendering:optimizeQuality; fill-rule:evenodd; clip-rule:evenodd"
viewBox="0 0 669 669"
 xmlns:xlink="http://www.w3.org/1999/xlink"
 xmlns:xodm="http://www.corel.com/coreldraw/odm/2003">
 <defs>
  <style type="text/css">
   <![CDATA[
    .fil0 {fill:#FEFEFE}
    .fil1 {fill:#E31E24}
    .fil2 {fill:#2B2A29;fill-rule:nonzero}
    .fil3 {fill:#2B2A29;fill-rule:nonzero}
   ]]>
  </style>
 </defs>
 <g id="Слой_x0020_1">
  <metadata id="CorelCorpID_0Corel-Layer"/>
  <rect class="fil0" x="-0.354" y="0.354" width="669" height="669"/>
  <polygon class="fil1" points="109.251,432.469 132.824,402.39 156.396,432.469 "/>
  <path class="fil2" d="M292.49 314.072l0 13.159c-5.599,-8.819 -14.838,-14.839 -27.017,-14.839 -20.157,0 -35.416,16.658 -35.416,40.176 0,23.517 14.979,40.175 35.556,40.175 12.039,0 21.278,-5.739 26.877,-14.558l0 12.878 15.818 0 0 -76.991 -15.818 0zm-23.517 63.553c-13.299,0 -22.957,-10.219 -22.957,-25.057 0,-14.699 9.518,-25.057 22.957,-25.057 13.438,0 23.657,10.358 23.657,25.057 0,14.838 -10.219,25.057 -23.657,25.057zm57.953 13.438l15.958 0 0 -107.787 -15.958 0 0 107.787zm93.929 -76.991l0 13.159c-5.599,-8.819 -14.838,-14.839 -27.017,-14.839 -20.157,0 -35.416,16.658 -35.416,40.176 0,23.517 14.979,40.175 35.556,40.175 12.039,0 21.278,-5.739 26.877,-14.558l0 12.878 15.818 0 0 -76.991 -15.818 0zm-23.517 63.553c-13.299,0 -22.957,-10.219 -22.957,-25.057 0,-14.699 9.518,-25.057 22.957,-25.057 13.438,0 23.657,10.358 23.657,25.057 0,14.838 -10.219,25.057 -23.657,25.057zm99.388 -65.233c-12.039,0 -20.298,5.46 -25.757,14.419l0 -12.739 -15.818 0 0 76.991 15.818 0 0 -39.895c0,-14.838 7.279,-23.657 20.858,-23.657 11.618,0 16.798,6.299 16.798,18.198l0 45.354 15.818 0 0 -48.574c0,-18.758 -10.359,-30.097 -27.717,-30.097zm79.51 80.351c18.198,0 33.037,-8.119 33.037,-24.637 0,-14.978 -12.039,-18.618 -32.896,-23.517 -13.439,-3.22 -18.198,-4.48 -18.198,-9.379 0,-5.32 6.019,-8.819 16.238,-8.819 9.799,0 15.678,3.079 17.918,9.379l15.958 0c-2.8,-13.999 -13.859,-23.378 -33.596,-23.378 -19.318,0 -32.476,8.959 -32.476,24.498 0,12.878 9.098,17.218 30.656,22.537 12.879,3.08 20.158,4.06 20.158,10.499 0,5.739 -6.3,8.819 -16.518,8.819 -13.299,0 -19.598,-3.92 -21.978,-12.459l-16.098 0c2.94,16.658 17.498,26.457 37.795,26.457z"/>
  <path class="fil3" d="M245.989 404.915l0 11.341c-1.481,-2.275 -3.865,-3.828 -7.007,-3.828 -5.201,0 -9.138,4.298 -9.138,10.365 0,6.068 3.864,10.366 9.174,10.366 3.106,0 5.49,-1.517 6.971,-3.756l0 3.323 4.081 0 0 -27.811 -4.081 0zm-6.104 24.343c-3.432,0 -5.924,-2.636 -5.924,-6.465 0,-3.792 2.457,-6.464 5.924,-6.464 3.467,0 6.104,2.672 6.104,6.464 0,3.829 -2.637,6.465 -6.104,6.465zm24.523 -16.83c-5.995,0 -10.257,4.406 -10.257,10.402 0,5.995 4.298,10.329 10.329,10.329 4.226,0 8.019,-2.095 9.572,-6.537l-4.226 0c-0.939,1.95 -2.926,2.961 -5.309,2.961 -3.323,0 -5.888,-2.022 -6.213,-5.67l16.145 0c0.397,-6.537 -3.648,-11.485 -10.041,-11.485zm0 3.539c2.998,0 5.057,1.914 5.67,4.623l-11.557 0c0.686,-2.672 2.781,-4.623 5.887,-4.623zm22.79 17.192c4.696,0 8.524,-2.095 8.524,-6.357 0,-3.864 -3.106,-4.803 -8.488,-6.067 -3.467,-0.831 -4.695,-1.156 -4.695,-2.42 0,-1.373 1.553,-2.275 4.19,-2.275 2.528,0 4.045,0.794 4.623,2.42l4.117 0c-0.722,-3.612 -3.575,-6.032 -8.668,-6.032 -4.984,0 -8.379,2.311 -8.379,6.32 0,3.323 2.347,4.443 7.91,5.815 3.322,0.795 5.2,1.048 5.2,2.709 0,1.481 -1.625,2.276 -4.261,2.276 -3.432,0 -5.057,-1.012 -5.671,-3.215l-4.154 0c0.759,4.298 4.515,6.826 9.752,6.826zm14.339 -29.255c-1.481,0 -2.637,1.048 -2.637,2.492 0,1.481 1.156,2.564 2.637,2.564 1.553,0 2.672,-1.083 2.672,-2.564 0,-1.444 -1.119,-2.492 -2.672,-2.492zm-2.023 28.822l4.081 0 0 -19.865 -4.081 0 0 19.865zm24.271 -19.865l0 3.395c-1.445,-2.275 -3.864,-3.828 -6.934,-3.828 -5.237,0 -9.174,4.298 -9.174,10.257 0,5.959 3.864,10.258 9.174,10.258 3.07,0 5.453,-1.517 6.934,-3.72l0 3.395c0,3.864 -1.986,5.923 -5.634,5.923 -2.673,0 -4.876,-1.192 -5.562,-3.757l-4.226 0c0.867,4.949 5.165,7.405 9.896,7.405 5.887,0 9.607,-3.793 9.607,-9.716l0 -19.612 -4.081 0zm-6.067 16.181c-3.432,0 -5.924,-2.637 -5.924,-6.357 0,-3.684 2.456,-6.356 5.924,-6.356 3.467,0 6.103,2.672 6.103,6.356 0,3.72 -2.636,6.357 -6.103,6.357zm25.643 -16.614c-3.106,0 -5.237,1.408 -6.646,3.72l0 -3.287 -4.081 0 0 19.865 4.081 0 0 -10.294c0,-3.828 1.878,-6.103 5.382,-6.103 2.998,0 4.334,1.625 4.334,4.695l0 11.702 4.081 0 0 -12.533c0,-4.84 -2.673,-7.765 -7.151,-7.765zm51.178 0.433l-5.309 15.603 -5.273 -15.603 -4.334 0 7.151 19.865 4.948 0 7.151 -19.865 -4.334 0zm9.607 -8.957c-1.48,0 -2.636,1.048 -2.636,2.492 0,1.481 1.156,2.564 2.636,2.564 1.553,0 2.673,-1.083 2.673,-2.564 0,-1.444 -1.12,-2.492 -2.673,-2.492zm-2.022 28.822l4.081 0 0 -19.865 -4.081 0 0 19.865zm17.589 0.433c4.695,0 8.524,-2.095 8.524,-6.357 0,-3.864 -3.106,-4.803 -8.488,-6.067 -3.467,-0.831 -4.695,-1.156 -4.695,-2.42 0,-1.373 1.553,-2.275 4.189,-2.275 2.529,0 4.045,0.794 4.624,2.42l4.117 0c-0.722,-3.612 -3.576,-6.032 -8.668,-6.032 -4.985,0 -8.38,2.311 -8.38,6.32 0,3.323 2.348,4.443 7.91,5.815 3.323,0.795 5.201,1.048 5.201,2.709 0,1.481 -1.625,2.276 -4.262,2.276 -3.431,0 -5.056,-1.012 -5.67,-3.215l-4.154 0c0.759,4.298 4.515,6.826 9.752,6.826zm25.788 -20.298l0 10.294c0,3.828 -1.915,6.103 -5.31,6.103 -2.961,0 -4.262,-1.625 -4.262,-4.695l0 -11.702 -4.081 0 0 12.533c0,4.84 2.637,7.765 7.043,7.765 3.07,0 5.201,-1.445 6.61,-3.72l0 3.287 4.081 0 0 -19.865 -4.081 0zm24.234 0l0 3.395c-1.444,-2.275 -3.828,-3.828 -6.97,-3.828 -5.201,0 -9.138,4.298 -9.138,10.365 0,6.068 3.865,10.366 9.174,10.366 3.106,0 5.49,-1.481 6.934,-3.756l0 3.323 4.081 0 0 -19.865 -4.081 0zm-6.067 16.397c-3.431,0 -5.924,-2.636 -5.924,-6.465 0,-3.792 2.456,-6.464 5.924,-6.464 3.467,0 6.103,2.672 6.103,6.464 0,3.829 -2.636,6.465 -6.103,6.465zm14.952 3.468l4.118 0 0 -27.811 -4.118 0 0 27.811zm10.8 -28.822c-1.481,0 -2.637,1.048 -2.637,2.492 0,1.481 1.156,2.564 2.637,2.564 1.552,0 2.672,-1.083 2.672,-2.564 0,-1.444 -1.12,-2.492 -2.672,-2.492zm-2.023 28.822l4.081 0 0 -19.865 -4.081 0 0 19.865zm13.038 -3.865l11.377 -12.135 0 -3.865 -15.928 0 0 3.865 10.691 0 -11.341 12.135 0 3.865 16.759 0 0 -3.865 -11.558 0zm30.808 -16l0 3.395c-1.444,-2.275 -3.828,-3.828 -6.97,-3.828 -5.201,0 -9.138,4.298 -9.138,10.365 0,6.068 3.865,10.366 9.174,10.366 3.106,0 5.49,-1.481 6.934,-3.756l0 3.323 4.082 0 0 -19.865 -4.082 0zm-6.067 16.397c-3.431,0 -5.923,-2.636 -5.923,-6.465 0,-3.792 2.456,-6.464 5.923,-6.464 3.467,0 6.104,2.672 6.104,6.464 0,3.829 -2.637,6.465 -6.104,6.465zm29.291 -0.866c-1.553,0.541 -2.962,0.975 -4.226,0.975 -2.564,0 -3.9,-1.59 -3.9,-4.479l0 -8.198 8.162 0 0 -3.829 -8.162 0 0 -5.418 -4.081 0.904 0 4.514 -3.684 0 0 3.829 3.684 0 0 8.415c0,5.49 3.178,8.054 7.259,8.054 2.275,0 4.587,-0.795 5.671,-1.445l-0.723 -3.322zm6.465 -24.488c-1.481,0 -2.637,1.048 -2.637,2.492 0,1.481 1.156,2.564 2.637,2.564 1.553,0 2.673,-1.083 2.673,-2.564 0,-1.444 -1.12,-2.492 -2.673,-2.492zm-2.023 28.822l4.082 0 0 -19.865 -4.082 0 0 19.865zm18.456 -20.298c-5.67,0 -10.293,4.37 -10.293,10.365 0,5.924 4.551,10.366 10.293,10.366 5.779,0 10.294,-4.406 10.294,-10.366 0,-5.995 -4.587,-10.365 -10.294,-10.365zm0 3.901c3.432,0 6.177,2.636 6.177,6.464 0,3.829 -2.709,6.465 -6.177,6.465 -3.467,0 -6.176,-2.636 -6.176,-6.465 0,-3.828 2.745,-6.464 6.176,-6.464zm25.102 -3.901c-3.106,0 -5.237,1.408 -6.646,3.72l0 -3.287 -4.081 0 0 19.865 4.081 0 0 -10.294c0,-3.828 1.879,-6.103 5.382,-6.103 2.998,0 4.334,1.625 4.334,4.695l0 11.702 4.081 0 0 -12.533c0,-4.84 -2.672,-7.765 -7.151,-7.765zm-225.192 20.298c-1.625,-1.698 -3.106,-3.215 -4.442,-4.623 1.408,-1.951 2.275,-4.371 2.564,-6.935l-4.154 0c-0.252,1.589 -0.686,2.889 -1.264,4.009 -1.95,-2.022 -3.503,-3.648 -4.731,-4.984 3.106,-1.878 5.49,-3.756 5.49,-7.043 0,-3.864 -3.07,-6.14 -6.826,-6.14 -3.684,0 -7.115,2.167 -7.115,6.357 0,1.733 0.65,3.323 2.672,5.851 -3.286,1.986 -5.273,3.684 -5.273,6.934 0,4.732 3.865,7.007 8.668,7.007 2.89,0 5.382,-0.903 7.368,-2.384 0.578,0.651 1.228,1.264 1.878,1.951l5.165 0zm-13.4 -21.96c1.77,0 2.746,1.012 2.746,2.42 0,1.481 -0.976,2.384 -3.901,4.19 -1.373,-1.734 -1.806,-2.709 -1.806,-3.757 0,-1.877 1.228,-2.853 2.961,-2.853zm-0.758 18.637c-3.142,0 -4.803,-1.372 -4.803,-3.359 0,-1.589 1.155,-2.456 3.647,-3.937 1.481,1.625 3.323,3.54 5.599,5.924 -1.301,0.938 -2.818,1.372 -4.443,1.372z"/>
  <path class="fil2" d="M164.286 284.565c7.643,-11.643 7.857,-22.67 0.301,-34.762 -12.238,-19.584 -32.269,-22.46 -55.431,-7.987l-50.751 31.713 74.493 119.214 51.433 -32.139c25.035,-15.643 31.53,-37.462 18.44,-58.409 -9.046,-14.476 -22.477,-21.949 -38.485,-17.63zm-17.198 -19.564c6.066,9.707 4.468,18.52 -9.497,27.247l-29.292 18.304 -19.156 -30.655 29.122 -18.198c13.795,-8.62 22.331,-7.087 28.823,3.302zm25.239 77.53l-31.677 19.794 -21.284 -34.062 31.507 -19.687c15.668,-9.791 24.715,-6.682 31.526,4.218 6.385,10.218 5.596,19.946 -10.072,29.737z"/>
 </g>
</svg>
