<?xml version="1.0" encoding="UTF-8"?>
<!DOCTYPE svg PUBLIC "-//W3C//DTD SVG 1.1//EN" "http://www.w3.org/Graphics/SVG/1.1/DTD/svg11.dtd">
<!-- Creator: CorelDRAW 2021 (64-Bit) -->
<svg xmlns="http://www.w3.org/2000/svg" xml:space="preserve" width="583px" height="276px" version="1.1" style="shape-rendering:geometricPrecision; text-rendering:geometricPrecision; image-rendering:optimizeQuality; fill-rule:evenodd; clip-rule:evenodd"
viewBox="0 0 583 275.743"
 xmlns:xlink="http://www.w3.org/1999/xlink"
 xmlns:xodm="http://www.corel.com/coreldraw/odm/2003">
 <defs>
  <style type="text/css">
   <![CDATA[
    .fil0 {fill:#E31E24}
    .fil1 {fill:#2B2A29;fill-rule:nonzero}
    .fil2 {fill:#2B2A29;fill-rule:nonzero}
   ]]>
  </style>
 </defs>
 <g id="Слой_x0020_1">
  <metadata id="CorelCorpID_0Corel-Layer"/>
  <polygon class="fil0" points="66.028,235.937 89.625,205.829 113.22,235.937 "/>
  <path class="fil1" d="M249.448 117.424l0 13.172c-5.605,-8.828 -14.853,-14.854 -27.043,-14.854 -20.178,0 -35.451,16.675 -35.451,40.215 0,23.541 14.993,40.215 35.591,40.215 12.05,0 21.298,-5.745 26.903,-14.572l0 12.891 15.834 0 0 -77.067 -15.834 0zm-23.54 63.615c-13.312,0 -22.98,-10.229 -22.98,-25.082 0,-14.712 9.528,-25.081 22.98,-25.081 13.451,0 23.68,10.369 23.68,25.081 0,14.853 -10.229,25.082 -23.68,25.082zm58.01 13.452l15.974 0 0 -107.893 -15.974 0 0 107.893zm94.021 -77.067l0 13.172c-5.605,-8.828 -14.853,-14.854 -27.044,-14.854 -20.177,0 -35.45,16.675 -35.45,40.215 0,23.541 14.993,40.215 35.591,40.215 12.05,0 21.298,-5.745 26.903,-14.572l0 12.891 15.834 0 0 -77.067 -15.834 0zm-23.54 63.615c-13.312,0 -22.98,-10.229 -22.98,-25.082 0,-14.712 9.528,-25.081 22.98,-25.081 13.451,0 23.68,10.369 23.68,25.081 0,14.853 -10.229,25.082 -23.68,25.082zm99.485 -65.297c-12.05,0 -20.317,5.465 -25.782,14.433l0 -12.751 -15.834 0 0 77.067 15.834 0 0 -39.935c0,-14.853 7.286,-23.68 20.878,-23.68 11.63,0 16.815,6.305 16.815,18.216l0 45.399 15.834 0 0 -48.622c0,-18.777 -10.37,-30.127 -27.745,-30.127zm79.589 80.43c18.216,0 33.069,-8.127 33.069,-24.661 0,-14.993 -12.051,-18.636 -32.929,-23.54 -13.451,-3.223 -18.215,-4.484 -18.215,-9.389 0,-5.324 6.025,-8.827 16.253,-8.827 9.809,0 15.694,3.082 17.936,9.388l15.974 0c-2.803,-14.012 -13.872,-23.401 -33.629,-23.401 -19.337,0 -32.508,8.968 -32.508,24.522 0,12.891 9.108,17.235 30.686,22.559 12.891,3.083 20.178,4.064 20.178,10.51 0,5.745 -6.306,8.827 -16.535,8.827 -13.311,0 -19.616,-3.923 -21.999,-12.471l-16.113 0c2.942,16.675 17.515,26.483 37.832,26.483z"/>
  <path class="fil2" d="M203.418 217.55l0 3.639c-1.548,-2.439 -4.104,-4.103 -7.472,-4.103 -5.574,0 -9.794,4.606 -9.794,11.11 0,6.504 4.142,11.111 9.833,11.111 3.329,0 5.885,-1.587 7.433,-4.026l0 3.562 4.375 0 0 -21.293 -4.375 0zm-6.504 17.576c-3.678,0 -6.349,-2.826 -6.349,-6.93 0,-4.064 2.633,-6.929 6.349,-6.929 3.717,0 6.543,2.865 6.543,6.929 0,4.104 -2.826,6.93 -6.543,6.93zm25.632 -18.04c-3.368,0 -5.807,1.703 -7.085,4.684l0 -4.22 -4.375 0 0 21.293 4.375 0 0 -9.756c0,-5.265 3.058,-7.51 7.046,-7.51 0.581,0 0.929,0.038 1.316,0.077l0 -4.452c-0.309,-0.078 -0.735,-0.116 -1.277,-0.116zm13.127 22.221c4.994,0 9.484,-2.98 10.491,-8.246l-4.529 0c-0.813,2.633 -3.175,4.181 -5.962,4.181 -3.833,0 -6.621,-2.903 -6.621,-7.046 0,-4.103 2.711,-7.046 6.659,-7.046 2.749,0 5.111,1.472 5.924,4.143l4.529 0c-0.968,-5.149 -5.42,-8.207 -10.453,-8.207 -6.349,0 -11.072,4.762 -11.072,11.11 0,6.35 4.723,11.111 11.034,11.111zm24.392 -22.221c-3.291,0 -5.613,1.471 -7.123,3.949l0 -12.002 -4.375 0 0 29.81 4.375 0 0 -11.034c0,-4.103 2.013,-6.542 5.73,-6.542 3.213,0 4.684,1.742 4.684,5.033l0 12.543 4.375 0 0 -13.434c0,-5.187 -2.904,-8.323 -7.666,-8.323zm12.895 -9.137c-1.587,0 -2.826,1.123 -2.826,2.672 0,1.587 1.239,2.748 2.826,2.748 1.665,0 2.865,-1.161 2.865,-2.748 0,-1.549 -1.2,-2.672 -2.865,-2.672zm-2.168 30.894l4.375 0 0 -21.293 -4.375 0 0 21.293zm23.037 -4.646c-1.664,0.581 -3.174,1.045 -4.529,1.045 -2.749,0 -4.181,-1.703 -4.181,-4.8l0 -8.788 8.749 0 0 -4.104 -8.749 0 0 -5.807 -4.375 0.968 0 4.839 -3.949 0 0 4.104 3.949 0 0 9.02c0,5.885 3.407,8.633 7.782,8.633 2.439,0 4.916,-0.851 6.078,-1.548l-0.775 -3.562zm12.237 -17.111c-6.427,0 -10.995,4.723 -10.995,11.149 0,6.427 4.607,11.072 11.072,11.072 4.53,0 8.595,-2.245 10.259,-7.007l-4.529 0c-1.007,2.091 -3.136,3.175 -5.691,3.175 -3.562,0 -6.31,-2.168 -6.659,-6.078l17.305 0c0.426,-7.008 -3.91,-12.311 -10.762,-12.311zm0 3.794c3.213,0 5.42,2.051 6.078,4.955l-12.389 0c0.736,-2.865 2.982,-4.955 6.311,-4.955zm23.541 18.427c4.994,0 9.484,-2.98 10.491,-8.246l-4.53 0c-0.813,2.633 -3.174,4.181 -5.961,4.181 -3.833,0 -6.621,-2.903 -6.621,-7.046 0,-4.103 2.71,-7.046 6.659,-7.046 2.749,0 5.11,1.472 5.923,4.143l4.53 0c-0.968,-5.149 -5.42,-8.207 -10.453,-8.207 -6.349,0 -11.072,4.762 -11.072,11.11 0,6.35 4.723,11.111 11.034,11.111zm28.108 -5.11c-1.664,0.581 -3.174,1.045 -4.529,1.045 -2.749,0 -4.181,-1.703 -4.181,-4.8l0 -8.788 8.749 0 0 -4.104 -8.749 0 0 -5.807 -4.375 0.968 0 4.839 -3.948 0 0 4.104 3.948 0 0 9.02c0,5.885 3.407,8.633 7.782,8.633 2.439,0 4.917,-0.851 6.078,-1.548l-0.775 -3.562zm17.386 -16.647l0 11.034c0,4.104 -2.052,6.542 -5.691,6.542 -3.175,0 -4.568,-1.742 -4.568,-5.032l0 -12.544 -4.375 0 0 13.434c0,5.188 2.826,8.323 7.549,8.323 3.291,0 5.575,-1.548 7.085,-3.987l0 3.523 4.374 0 0 -21.293 -4.374 0zm19.05 -0.464c-3.368,0 -5.807,1.703 -7.085,4.684l0 -4.22 -4.375 0 0 21.293 4.375 0 0 -9.756c0,-5.265 3.059,-7.51 7.046,-7.51 0.581,0 0.929,0.038 1.316,0.077l0 -4.452c-0.309,-0.078 -0.735,-0.116 -1.277,-0.116zm12.856 0c-6.427,0 -10.995,4.723 -10.995,11.149 0,6.427 4.607,11.072 11.072,11.072 4.53,0 8.595,-2.245 10.259,-7.007l-4.529 0c-1.007,2.091 -3.136,3.175 -5.691,3.175 -3.562,0 -6.31,-2.168 -6.659,-6.078l17.305 0c0.426,-7.008 -3.91,-12.311 -10.762,-12.311zm0 3.794c3.213,0 5.42,2.051 6.078,4.955l-12.389 0c0.736,-2.865 2.981,-4.955 6.311,-4.955zm36.974 17.963c-1.742,-1.82 -3.329,-3.446 -4.762,-4.956 1.51,-2.09 2.439,-4.684 2.749,-7.432l-4.452 0c-0.271,1.703 -0.736,3.097 -1.355,4.297 -2.091,-2.168 -3.755,-3.91 -5.071,-5.343 3.329,-2.013 5.884,-4.026 5.884,-7.549 0,-4.142 -3.291,-6.582 -7.317,-6.582 -3.949,0 -7.626,2.323 -7.626,6.814 0,1.859 0.696,3.562 2.864,6.272 -3.523,2.129 -5.652,3.949 -5.652,7.433 0,5.072 4.142,7.51 9.291,7.51 3.098,0 5.769,-0.968 7.898,-2.555 0.619,0.697 1.316,1.355 2.013,2.091l5.536 0zm-14.363 -23.538c1.897,0 2.942,1.084 2.942,2.594 0,1.587 -1.045,2.555 -4.181,4.49 -1.471,-1.858 -1.935,-2.903 -1.935,-4.026 0,-2.013 1.316,-3.058 3.174,-3.058zm-0.813 19.976c-3.368,0 -5.149,-1.471 -5.149,-3.6 0,-1.704 1.239,-2.633 3.91,-4.22 1.588,1.742 3.562,3.794 6.001,6.349 -1.393,1.007 -3.02,1.471 -4.762,1.471zm34.342 -26.248l0 12.156c-1.587,-2.439 -4.142,-4.103 -7.51,-4.103 -5.575,0 -9.795,4.606 -9.795,11.11 0,6.504 4.143,11.111 9.834,11.111 3.329,0 5.884,-1.625 7.471,-4.026l0 3.562 4.375 0 0 -29.81 -4.375 0zm-6.542 26.093c-3.678,0 -6.349,-2.826 -6.349,-6.93 0,-4.064 2.632,-6.929 6.349,-6.929 3.716,0 6.542,2.865 6.542,6.929 0,4.104 -2.826,6.93 -6.542,6.93zm24.47 -18.04c-6.427,0 -10.995,4.723 -10.995,11.149 0,6.427 4.607,11.072 11.072,11.072 4.53,0 8.594,-2.245 10.259,-7.007l-4.53 0c-1.006,2.091 -3.135,3.175 -5.691,3.175 -3.561,0 -6.31,-2.168 -6.658,-6.078l17.305 0c0.426,-7.008 -3.91,-12.311 -10.762,-12.311zm0 3.794c3.213,0 5.42,2.051 6.077,4.955l-12.388 0c0.736,-2.865 2.981,-4.955 6.311,-4.955zm22.611 18.427c5.033,0 9.137,-2.245 9.137,-6.813 0,-4.143 -3.33,-5.149 -9.098,-6.504 -3.717,-0.891 -5.033,-1.239 -5.033,-2.594 0,-1.471 1.665,-2.439 4.491,-2.439 2.71,0 4.336,0.852 4.955,2.594l4.414 0c-0.775,-3.871 -3.833,-6.465 -9.292,-6.465 -5.342,0 -8.982,2.477 -8.982,6.775 0,3.561 2.517,4.761 8.479,6.233 3.562,0.851 5.575,1.122 5.575,2.903 0,1.587 -1.742,2.439 -4.568,2.439 -3.678,0 -5.42,-1.084 -6.079,-3.445l-4.452 0c0.813,4.607 4.84,7.316 10.453,7.316zm13.553 -31.358c-1.587,0 -2.826,1.123 -2.826,2.672 0,1.587 1.239,2.748 2.826,2.748 1.664,0 2.865,-1.161 2.865,-2.748 0,-1.549 -1.201,-2.672 -2.865,-2.672zm-2.168 30.894l4.375 0 0 -21.293 -4.375 0 0 21.293zm24.199 -21.293l0 3.639c-1.549,-2.439 -4.143,-4.103 -7.433,-4.103 -5.614,0 -9.834,4.606 -9.834,10.994 0,6.388 4.143,10.995 9.834,10.995 3.29,0 5.845,-1.626 7.433,-3.987l0 3.639c0,4.142 -2.13,6.349 -6.04,6.349 -2.864,0 -5.226,-1.278 -5.962,-4.026l-4.529 0c0.929,5.303 5.536,7.936 10.608,7.936 6.31,0 10.297,-4.065 10.297,-10.414l0 -21.022 -4.374 0zm-6.504 17.344c-3.678,0 -6.349,-2.826 -6.349,-6.814 0,-3.948 2.632,-6.813 6.349,-6.813 3.717,0 6.542,2.865 6.542,6.813 0,3.988 -2.825,6.814 -6.542,6.814zm25.67 -17.808c-3.329,0 -5.613,1.509 -7.123,3.987l0 -3.523 -4.375 0 0 21.293 4.375 0 0 -11.034c0,-4.103 2.013,-6.542 5.768,-6.542 3.214,0 4.646,1.742 4.646,5.033l0 12.543 4.375 0 0 -13.434c0,-5.187 -2.865,-8.323 -7.666,-8.323z"/>
  <path class="fil1" d="M121.117 87.888c7.651,-11.655 7.865,-22.692 0.302,-34.796 -12.25,-19.605 -32.301,-22.483 -55.486,-7.996l-50.801 31.744 74.567 119.332 51.484 -32.17c25.059,-15.659 31.56,-37.499 18.458,-58.468 -9.055,-14.49 -22.5,-21.97 -38.524,-17.646zm-17.215 -19.584c6.072,9.717 4.473,18.539 -9.506,27.273l-29.321 18.323 -19.175 -30.686 29.152 -18.215c13.808,-8.629 22.353,-7.094 28.85,3.305zm25.264 77.607l-31.708 19.813 -21.305 -34.095 31.538 -19.707c15.684,-9.8 24.739,-6.689 31.557,4.222 6.392,10.228 5.602,19.966 -10.082,29.767z"/>
 </g>
</svg>
