<?xml version="1.0" encoding="UTF-8"?>
<!DOCTYPE svg PUBLIC "-//W3C//DTD SVG 1.1//EN" "http://www.w3.org/Graphics/SVG/1.1/DTD/svg11.dtd">
<!-- Creator: CorelDRAW 2021 (64-Bit) -->
<svg xmlns="http://www.w3.org/2000/svg" xml:space="preserve" width="669px" height="669px" version="1.1" style="shape-rendering:geometricPrecision; text-rendering:geometricPrecision; image-rendering:optimizeQuality; fill-rule:evenodd; clip-rule:evenodd"
viewBox="0 0 669 669"
 xmlns:xlink="http://www.w3.org/1999/xlink"
 xmlns:xodm="http://www.corel.com/coreldraw/odm/2003">
 <defs>
  <style type="text/css">
   <![CDATA[
    .fil0 {fill:#FEFEFE}
    .fil1 {fill:#E31E24}
    .fil2 {fill:#2B2A29;fill-rule:nonzero}
    .fil3 {fill:#2B2A29;fill-rule:nonzero}
   ]]>
  </style>
 </defs>
 <g id="Слой_x0020_1">
  <metadata id="CorelCorpID_0Corel-Layer"/>
  <rect class="fil0" x="-0.354" y="0.354" width="669" height="669"/>
  <polygon class="fil1" points="75.122,434.834 98.695,404.755 122.267,434.834 "/>
  <path class="fil2" d="M258.361 316.437l0 13.159c-5.599,-8.819 -14.838,-14.839 -27.017,-14.839 -20.158,0 -35.416,16.659 -35.416,40.176 0,23.517 14.979,40.175 35.556,40.175 12.039,0 21.278,-5.739 26.877,-14.558l0 12.878 15.818 0 0 -76.991 -15.818 0zm-23.518 63.553c-13.298,0 -22.957,-10.219 -22.957,-25.057 0,-14.698 9.519,-25.057 22.957,-25.057 13.439,0 23.658,10.359 23.658,25.057 0,14.838 -10.219,25.057 -23.658,25.057zm75.732 -63.553l-7.28 45.635c-2.379,14.278 -5.599,18.338 -13.018,18.338 -1.54,0 -3.08,-0.28 -4.62,-0.42l0 14.278c2.52,0.42 5.32,0.84 7.84,0.84 13.158,0 21.697,-8.679 25.477,-31.636l5.039 -32.197 25.477 0 0 62.153 15.818 0 0 -76.991 -54.733 0zm132.984 0l0 13.159c-5.599,-8.819 -14.838,-14.839 -27.017,-14.839 -20.158,0 -35.416,16.659 -35.416,40.176 0,23.517 14.979,40.175 35.556,40.175 12.039,0 21.278,-5.739 26.877,-14.558l0 12.878 15.818 0 0 -76.991 -15.818 0zm-23.518 63.553c-13.298,0 -22.956,-10.219 -22.956,-25.057 0,-14.698 9.518,-25.057 22.956,-25.057 13.439,0 23.658,10.359 23.658,25.057 0,14.838 -10.219,25.057 -23.658,25.057zm114.507 -63.553l0 30.237 -40.875 0 0 -30.237 -15.818 0 0 76.991 15.818 0 0 -31.776 40.875 0 0 31.776 15.818 0 0 -76.991 -15.818 0zm71.532 78.671c18.058,0 34.296,-10.779 37.936,-29.816l-16.379 0c-2.939,9.518 -11.478,15.118 -21.557,15.118 -13.858,0 -23.937,-10.499 -23.937,-25.477 0,-14.839 9.798,-25.477 24.077,-25.477 9.939,0 18.478,5.319 21.417,14.978l16.379 0c-3.5,-18.618 -19.598,-29.677 -37.796,-29.677 -22.957,0 -40.035,17.219 -40.035,40.176 0,22.957 17.078,40.175 39.895,40.175z"/>
  <path class="fil3" d="M216.564 431.919l0 -16.45 -14.56 0 -1.815 11.3c-0.482,2.89 -1.075,4.446 -2.001,5.15l-3.557 0 0 9.225 4.187 0 0 -5.298 17.265 0 0 5.298 4.186 0 0 -9.225 -3.705 0zm-13.819 0c0.704,-1.037 1.223,-2.593 1.593,-4.965l1.223 -7.558 6.817 0 0 12.523 -9.633 0zm34.863 -16.45l-10.077 14.931 0.259 -6.409 0 -8.522 -4.186 0 0 20.377 4.927 0 10.077 -14.967 -0.259 6.446 0 8.521 4.186 0 0 -20.377 -4.927 0zm23.933 9.596c1.593,-0.778 2.668,-2.075 2.668,-4.149 0,-3.631 -3.298,-5.891 -8.485,-5.891 -5.668,0 -8.335,2.667 -9.076,6.224l4.26 0c0.556,-2.334 2.556,-3.038 4.742,-3.038 3.186,0 4.335,1.334 4.335,3.001 0,1.482 -0.852,2.519 -3.705,2.519l-3.038 0 0 3.223 3.779 0c2.927,0 3.594,1.408 3.594,2.816 0,1.964 -1.408,3.26 -4.668,3.26 -3.187,0 -5.002,-1.074 -5.595,-3.89l-4.223 0c0.778,4.224 3.556,7.151 9.929,7.151 5.335,0 8.78,-2.297 8.78,-6.224 0,-2.297 -1.111,-4.187 -3.297,-5.002zm23.044 -9.596l0 3.483c-1.482,-2.334 -3.927,-3.927 -7.15,-3.927 -5.335,0 -9.373,4.408 -9.373,10.633 0,6.224 3.964,10.633 9.41,10.633 3.186,0 5.631,-1.519 7.113,-3.853l0 3.408 4.186 0 0 -20.377 -4.186 0zm-6.224 16.82c-3.52,0 -6.076,-2.704 -6.076,-6.631 0,-3.89 2.519,-6.632 6.076,-6.632 3.557,0 6.261,2.742 6.261,6.632 0,3.927 -2.704,6.631 -6.261,6.631zm24.785 -19.895c3.224,0 6.039,-2.149 6.039,-5.742l0 -0.852 -3.334 0 0 0.704c0,1.667 -1.074,2.704 -2.705,2.704 -1.667,0 -2.741,-1.037 -2.741,-2.704l0 -0.704 -3.334 0 0 0.852c0,3.593 2.815,5.742 6.075,5.742zm4.52 3.075l-10.077 14.931 0.26 -6.409 0 -8.522 -4.187 0 0 20.377 4.928 0 10.077 -14.967 -0.26 6.446 0 8.521 4.187 0 0 -20.377 -4.928 0zm24.786 0l0 8.003 -10.818 0 0 -8.003 -4.187 0 0 20.377 4.187 0 0 -8.41 10.818 0 0 8.41 4.186 0 0 -20.377 -4.186 0zm49.645 9.448c1.667,-1 2.778,-2.223 2.778,-4.298 0,-3.742 -2.778,-5.15 -7.188,-5.15l-9.484 0 0 20.377 10.374 0c4.52,0 7.298,-2.001 7.298,-5.854 0,-2.482 -1.259,-4.334 -3.778,-5.075zm-1.445 -3.52c0,1.445 -0.852,2.482 -3.372,2.482l-4.89 0 0 -5.112 4.964 0c2.557,0 3.298,1 3.298,2.63zm-2.334 11.152l-5.928 0 0 -5.632 5.891 0c2.482,0 3.371,1.075 3.371,2.742 0,1.704 -0.741,2.89 -3.334,2.89zm25.452 -17.08l-10.077 14.931 0.259 -6.409 0 -8.522 -4.186 0 0 20.377 4.927 0 10.077 -14.967 -0.259 6.446 0 8.521 4.186 0 0 -20.377 -4.927 0zm23.933 9.596c1.593,-0.778 2.667,-2.075 2.667,-4.149 0,-3.631 -3.297,-5.891 -8.484,-5.891 -5.668,0 -8.335,2.667 -9.076,6.224l4.26 0c0.556,-2.334 2.556,-3.038 4.742,-3.038 3.186,0 4.335,1.334 4.335,3.001 0,1.482 -0.852,2.519 -3.705,2.519l-3.038 0 0 3.223 3.779 0c2.927,0 3.594,1.408 3.594,2.816 0,1.964 -1.408,3.26 -4.668,3.26 -3.187,0 -5.002,-1.074 -5.595,-3.89l-4.223 0c0.778,4.224 3.556,7.151 9.929,7.151 5.335,0 8.78,-2.297 8.78,-6.224 0,-2.297 -1.111,-4.187 -3.297,-5.002zm20.969 -9.596l-5.89 13.264 -5.78 -13.264 -4.483 0 8.04 17.784 -5.372 11.855 4.483 0 13.485 -29.639 -4.483 0zm22.452 0l0 3.483c-1.482,-2.334 -3.927,-3.927 -7.151,-3.927 -5.335,0 -9.373,4.408 -9.373,10.633 0,6.224 3.964,10.633 9.41,10.633 3.187,0 5.632,-1.519 7.114,-3.853l0 3.408 4.186 0 0 -20.377 -4.186 0zm-6.224 16.82c-3.52,0 -6.077,-2.704 -6.077,-6.631 0,-3.89 2.52,-6.632 6.077,-6.632 3.556,0 6.261,2.742 6.261,6.632 0,3.927 -2.705,6.631 -6.261,6.631zm20.043 -16.82l-1.927 12.078c-0.63,3.779 -1.482,4.854 -3.445,4.854 -0.408,0 -0.815,-0.075 -1.223,-0.112l0 3.779c0.667,0.111 1.408,0.223 2.075,0.223 3.482,0 5.742,-2.297 6.743,-8.373l1.333 -8.522 6.743 0 0 16.45 4.187 0 0 -20.377 -14.486 0zm33.343 0l-10.077 14.931 0.26 -6.409 0 -8.522 -4.187 0 0 20.377 4.928 0 10.077 -14.967 -0.259 6.446 0 8.521 4.186 0 0 -20.377 -4.928 0zm23.934 9.596c1.593,-0.778 2.667,-2.075 2.667,-4.149 0,-3.631 -3.297,-5.891 -8.484,-5.891 -5.668,0 -8.336,2.667 -9.077,6.224l4.261 0c0.555,-2.334 2.556,-3.038 4.742,-3.038 3.186,0 4.334,1.334 4.334,3.001 0,1.482 -0.852,2.519 -3.704,2.519l-3.038 0 0 3.223 3.779 0c2.926,0 3.593,1.408 3.593,2.816 0,1.964 -1.408,3.26 -4.668,3.26 -3.186,0 -5.001,-1.074 -5.594,-3.89l-4.223 0c0.778,4.224 3.556,7.151 9.928,7.151 5.335,0 8.781,-2.297 8.781,-6.224 0,-2.297 -1.112,-4.187 -3.297,-5.002zm23.044 -9.596l0 3.483c-1.482,-2.334 -3.927,-3.927 -7.151,-3.927 -5.334,0 -9.373,4.408 -9.373,10.633 0,6.224 3.964,10.633 9.41,10.633 3.187,0 5.632,-1.519 7.114,-3.853l0 3.408 4.186 0 0 -20.377 -4.186 0zm-6.224 16.82c-3.52,0 -6.076,-2.704 -6.076,-6.631 0,-3.89 2.519,-6.632 6.076,-6.632 3.556,0 6.261,2.742 6.261,6.632 0,3.927 -2.705,6.631 -6.261,6.631zm33.677 -0.37l0 -16.45 -4.187 0 0 16.45 -10.003 0 0 -16.45 -4.186 0 0 20.377 4.186 0 13.708 0 0 5.298 4.186 0 0 -9.225 -3.704 0zm21.043 -16.45l-10.077 14.931 0.26 -6.409 0 -8.522 -4.187 0 0 20.377 4.928 0 10.077 -14.967 -0.26 6.446 0 8.521 4.187 0 0 -20.377 -4.928 0zm16.672 0c-4.187,0 -7.41,2.112 -7.41,6.817 0,3.409 2.112,5.187 4.928,5.891l-5.965 7.669 5.149 0 5.298 -7.373 4.039 0 0 7.373 4.186 0 0 -20.377 -10.225 0zm0.333 9.559c-2.482,0 -3.519,-1.149 -3.519,-2.816 0,-1.704 0.815,-2.964 3.408,-2.964l5.817 0 0 5.78 -5.706 0zm-266.526 10.818c-1.667,-1.741 -3.186,-3.297 -4.557,-4.742 1.445,-2.001 2.334,-4.483 2.63,-7.113l-4.26 0c-0.259,1.63 -0.704,2.963 -1.297,4.112 -2,-2.075 -3.593,-3.742 -4.853,-5.113 3.186,-1.926 5.631,-3.853 5.631,-7.224 0,-3.964 -3.149,-6.299 -7.002,-6.299 -3.779,0 -7.299,2.223 -7.299,6.521 0,1.778 0.667,3.408 2.742,6.002 -3.371,2.038 -5.409,3.779 -5.409,7.113 0,4.854 3.964,7.188 8.891,7.188 2.965,0 5.521,-0.927 7.559,-2.446 0.592,0.667 1.259,1.297 1.926,2.001l5.298 0zm-13.745 -22.526c1.816,0 2.816,1.038 2.816,2.483 0,1.519 -1,2.445 -4.001,4.298 -1.409,-1.779 -1.853,-2.779 -1.853,-3.854 0,-1.926 1.26,-2.927 3.038,-2.927zm-0.778 19.118c-3.223,0 -4.928,-1.408 -4.928,-3.446 0,-1.63 1.186,-2.519 3.743,-4.038 1.519,1.667 3.408,3.631 5.742,6.076 -1.334,0.963 -2.89,1.408 -4.557,1.408z"/>
  <path class="fil2" d="M104.591 290.355l-32.018 20.007 -17.559 -28.1 62.843 -39.269 -11.493 -18.393 -62.844 39.269 -19.244 12.025 74.493 119.214 50.071 -31.287c26.056,-16.282 31.977,-39.399 17.823,-62.05 -14.26,-22.821 -35.845,-27.804 -62.072,-11.416zm32.074 55.499l-30.144 18.836 -22.881 -36.616 31.167 -19.475c14.816,-9.258 25.034,-6.17 32.164,5.24 7.023,11.24 4.511,22.756 -10.306,32.015z"/>
 </g>
</svg>
