<svg xmlns="http://www.w3.org/2000/svg" xml:space="preserve" width="583" height="276" style="shape-rendering:geometricPrecision;text-rendering:geometricPrecision;image-rendering:optimizeQuality;fill-rule:evenodd;clip-rule:evenodd" viewBox="0 0 583 275.743"><defs><style>.fil1{fill:#2b2a29;fill-rule:nonzero}</style></defs><g id="Слой_x0020_1"><path style="fill:#e31e24" d="m60.164 211.69 20.878-26.639 20.876 26.639z"/><path class="fil1" d="M222.45 106.832v11.654c-4.959-7.811-13.142-13.141-23.927-13.141-17.853 0-31.366 14.753-31.366 35.581 0 20.827 13.265 35.581 31.49 35.581 10.661 0 18.844-5.083 23.803-12.894v11.406h14.009v-68.187H222.45zm-20.828 56.285c-11.778 0-20.332-9.05-20.332-22.191 0-13.018 8.43-22.192 20.332-22.192 11.902 0 20.952 9.174 20.952 22.192 0 13.141-9.05 22.191-20.952 22.191zm67.071-56.285-6.447 40.416c-2.107 12.646-4.959 16.241-11.53 16.241-1.363 0-2.727-.248-4.091-.372v12.646c2.232.372 4.711.744 6.943.744 11.654 0 19.216-7.687 22.564-28.019l4.463-28.514h22.563v55.045h14.01v-68.187h-48.475zm117.777 0v11.654c-4.959-7.811-13.141-13.141-23.927-13.141-17.853 0-31.366 14.753-31.366 35.581 0 20.827 13.265 35.581 31.49 35.581 10.662 0 18.844-5.083 23.803-12.894v11.406h14.01v-68.187h-14.01zm-20.828 56.285c-11.778 0-20.332-9.05-20.332-22.191 0-13.018 8.431-22.192 20.332-22.192 11.902 0 20.952 9.174 20.952 22.192 0 13.141-9.05 22.191-20.952 22.191zm101.413-56.285v26.779h-36.201v-26.779h-14.009v68.187h14.009v-28.143h36.201v28.143h14.009v-68.187h-14.009zm63.352 69.675c15.993 0 30.374-9.546 33.597-26.407h-14.505c-2.603 8.43-10.166 13.389-19.092 13.389-12.274 0-21.2-9.298-21.2-22.563 0-13.142 8.678-22.564 21.324-22.564 8.802 0 16.365 4.711 18.968 13.265h14.505c-3.099-16.488-17.356-26.282-33.473-26.282-20.332 0-35.457 15.249-35.457 35.581s15.125 35.581 35.333 35.581z"/><path d="M183.748 196.199v3.5c-1.489-2.346-3.946-3.947-7.185-3.947-5.362 0-9.419 4.431-9.419 10.685 0 6.255 3.983 10.685 9.456 10.685 3.202 0 5.659-1.526 7.148-3.872v3.425h4.207v-20.476h-4.207zm-6.254 16.902c-3.537 0-6.106-2.718-6.106-6.664 0-3.909 2.532-6.664 6.106-6.664s6.291 2.755 6.291 6.664c0 3.946-2.717 6.664-6.291 6.664zm25.386-17.349c-3.24 0-5.696 1.601-7.186 3.947v-3.5h-4.207v29.784h4.207V213.25c1.49 2.309 3.946 3.872 7.149 3.872 5.472 0 9.456-4.43 9.456-10.685 0-6.254-4.058-10.685-9.419-10.685zm-.931 17.349c-3.574 0-6.292-2.718-6.292-6.664 0-3.909 2.718-6.664 6.292-6.664s6.106 2.755 6.106 6.664c0 3.946-2.569 6.664-6.106 6.664zm30.114 3.574-7.297-10.461 6.925-10.015h-5.064l-4.393 6.85-4.542-6.85h-5.026l6.925 9.94-7.334 10.536h5.063l4.765-7.334 4.952 7.334h5.026zm15.855-20.476-10.126 15.004.26-6.441v-8.563h-4.207v20.476h4.952l10.126-15.041-.26 6.478v8.563h4.207v-20.476h-4.952zm24.269 0h-17.572v3.946h6.701v16.53h4.207v-16.53h6.664v-3.946zm11.239-.447c-6.18 0-10.573 4.542-10.573 10.723 0 6.18 4.43 10.647 10.647 10.647 4.356 0 8.266-2.159 9.866-6.739h-4.356c-.968 2.011-3.015 3.053-5.472 3.053-3.426 0-6.069-2.084-6.404-5.845h16.642c.409-6.738-3.76-11.839-10.35-11.839zm0 3.649c3.09 0 5.212 1.973 5.845 4.765h-11.913c.707-2.755 2.866-4.765 6.068-4.765zm32.162 17.274-10.834-10.759 10.015-9.717h-5.398l-8.861 8.861v-8.861h-4.207v20.476h4.207v-9.456l9.642 9.456h5.436zm17.791-20.476h-17.573v3.946h6.701v16.53h4.207v-16.53h6.665v-3.946zm16.451 0-5.92 13.328-5.808-13.328h-4.505l8.079 17.87-5.398 11.914h4.504l13.552-29.784h-4.504zm17.865-.447c-3.239 0-5.696 1.601-7.186 3.947v-3.5h-4.207v29.784h4.207V213.25c1.49 2.309 3.947 3.872 7.149 3.872 5.473 0 9.456-4.43 9.456-10.685 0-6.254-4.058-10.685-9.419-10.685zm-.931 17.349c-3.574 0-6.292-2.718-6.292-6.664 0-3.909 2.718-6.664 6.292-6.664s6.106 2.755 6.106 6.664c0 3.946-2.569 6.664-6.106 6.664zm28.96-16.902v3.5c-1.489-2.346-3.946-3.947-7.185-3.947-5.361 0-9.419 4.431-9.419 10.685 0 6.255 3.983 10.685 9.456 10.685 3.202 0 5.659-1.526 7.148-3.872v3.425h4.207v-20.476h-4.207zm-6.254 16.902c-3.537 0-6.106-2.718-6.106-6.664 0-3.909 2.532-6.664 6.106-6.664s6.291 2.755 6.291 6.664c0 3.946-2.717 6.664-6.291 6.664zm59.558-.372v-16.53h-14.632l-1.824 11.355c-.484 2.904-1.08 4.468-2.01 5.175h-3.574v9.27h4.207v-5.324h17.349v5.324h4.207v-9.27h-3.723zm-13.887 0c.707-1.042 1.229-2.606 1.601-4.989l1.228-7.595h6.851v12.584h-9.68zm33.465-16.53-10.127 15.004.261-6.441v-8.563h-4.207v20.476h4.952l10.126-15.041-.26 6.478v8.563h4.207v-20.476h-4.952zm22.482 9.643c1.601-.782 2.681-2.085 2.681-4.17 0-3.649-3.314-5.92-8.526-5.92-5.696 0-8.377 2.681-9.121 6.255h4.281c.559-2.346 2.569-3.053 4.766-3.053 3.201 0 4.356 1.34 4.356 3.016 0 1.489-.857 2.531-3.723 2.531h-3.053v3.239h3.797c2.941 0 3.612 1.415 3.612 2.83 0 1.973-1.415 3.276-4.692 3.276-3.201 0-5.026-1.08-5.621-3.909H475.6c.782 4.244 3.575 7.185 9.978 7.185 5.361 0 8.824-2.308 8.824-6.254 0-2.309-1.117-4.207-3.314-5.026zm21.589-9.643v3.5c-1.49-2.346-3.946-3.947-7.186-3.947-5.361 0-9.419 4.431-9.419 10.685 0 6.255 3.984 10.685 9.457 10.685 3.202 0 5.658-1.526 7.148-3.872v3.425h4.207v-20.476h-4.207zm-6.255 16.902c-3.537 0-6.106-2.718-6.106-6.664 0-3.909 2.532-6.664 6.106-6.664s6.292 2.755 6.292 6.664c0 3.946-2.718 6.664-6.292 6.664zm23.339-19.992c3.238 0 6.068-2.16 6.068-5.771v-.856h-3.351v.707c0 1.676-1.079 2.718-2.717 2.718-1.676 0-2.755-1.042-2.755-2.718v-.707h-3.351v.856c0 3.611 2.829 5.771 6.106 5.771zm4.542 3.09-10.127 15.004.261-6.441v-8.563h-4.207v20.476h4.951l10.127-15.041-.261 6.478v8.563h4.207v-20.476h-4.951zm23.338 0v8.042H546.77v-8.042h-4.207v20.476h4.207v-8.451h10.871v8.451h4.207v-20.476h-4.207zm-131.505 20.476c-1.675-1.749-3.201-3.313-4.579-4.765 1.452-2.01 2.345-4.505 2.644-7.148h-4.282c-.261 1.638-.707 2.978-1.303 4.132-2.011-2.085-3.611-3.76-4.877-5.137 3.202-1.936 5.659-3.872 5.659-7.26 0-3.984-3.165-6.329-7.037-6.329-3.797 0-7.334 2.233-7.334 6.552 0 1.787.67 3.425 2.755 6.032-3.388 2.047-5.436 3.797-5.436 7.148 0 4.877 3.984 7.222 8.936 7.222 2.978 0 5.547-.931 7.594-2.457.596.67 1.266 1.303 1.937 2.01h5.323zm-13.812-22.635c1.824 0 2.83 1.042 2.83 2.494 0 1.526-1.006 2.457-4.021 4.319-1.415-1.787-1.862-2.793-1.862-3.872 0-1.936 1.266-2.941 3.053-2.941zm-.782 19.21c-3.239 0-4.951-1.415-4.951-3.462 0-1.638 1.191-2.532 3.76-4.058 1.526 1.675 3.425 3.649 5.77 6.105-1.34.969-2.904 1.415-4.579 1.415z" style="fill:#2b2a29;fill-rule:nonzero"/><path class="fil1" d="m86.263 83.732-28.357 17.719-15.551-24.887 55.658-34.779-10.18-16.29-55.657 34.779-17.044 10.65 65.976 105.583 44.344-27.71c23.077-14.42 28.321-34.894 15.785-54.955-12.629-20.211-31.746-24.625-54.974-10.11zm28.407 49.152-26.698 16.683-20.264-32.429L95.311 99.89c13.122-8.2 22.171-5.465 28.486 4.64 6.221 9.955 3.995 20.155-9.127 28.354z"/></g></svg>