<svg xmlns="http://www.w3.org/2000/svg" xml:space="preserve" width="433" height="433" style="shape-rendering:geometricPrecision;text-rendering:geometricPrecision;image-rendering:optimizeQuality;fill-rule:evenodd;clip-rule:evenodd"><path style="fill:#e31e24" d="m178.065 419.596 46.974-59.938 46.971 59.938z"/><path d="M287.732 124.87c15.231-23.201 15.657-45.174.601-69.269-24.387-39.028-64.303-44.757-110.457-15.918L76.745 102.878l148.442 237.557 102.489-64.042c49.888-31.174 62.829-74.651 36.746-116.393-18.026-28.846-44.79-43.738-76.69-35.13zm-34.27-38.986c12.087 19.344 8.904 36.905-18.924 54.294l-58.371 36.475-38.171-61.086 58.033-36.263c27.488-17.176 44.498-14.121 57.433 6.58zm50.294 154.494-63.123 39.443-42.412-67.875 62.784-39.231c31.221-19.509 49.249-13.314 62.82 8.405 12.725 20.362 11.153 39.747-20.069 59.258z" style="fill:#2b2a29;fill-rule:nonzero"/></svg>